<?xml version="1.0" encoding="UTF-8" standalone="no"?>
<!DOCTYPE svg PUBLIC "-//W3C//DTD SVG 1.1//EN"
 "http://www.w3.org/Graphics/SVG/1.1/DTD/svg11.dtd">
<!-- Generated by graphviz version 2.38.0 (20140413.2041)
 -->
<!-- Title: G Pages: 1 -->
<svg width="818pt" height="1065pt"
 viewBox="0.00 0.00 818.00 1065.00" xmlns="http://www.w3.org/2000/svg" xmlns:xlink="http://www.w3.org/1999/xlink">
<g id="graph0" class="graph" transform="scale(1 1) rotate(0) translate(4 1061)">
<title>G</title>
<g id="clust1" class="cluster"><title>cluster_acquisition</title>
<polygon fill="#d0c0a0" stroke="black" points="413,-975 413,-1049 621,-1049 621,-975 413,-975"/>
<text text-anchor="middle" x="516.958" y="-1033.8" font-family="Times,serif" font-size="14.00">1. Intan GUI/Open Ephys/NiDAQ</text>
</g>
<g id="clust2" class="cluster"><title>cluster_intanfront</title>
<polygon fill="#d0c0a0" stroke="black" points="56,-718 56,-947 743,-947 743,-718 56,-718"/>
<text text-anchor="middle" x="624.586" y="-931.8" font-family="Times,serif" font-size="14.00">2. Raw data parsing [intan_frontend.m]</text>
</g>
<g id="clust5" class="cluster"><title>cluster_zftftb</title>
<polygon fill="#d0c0a0" stroke="black" points="37,-625 37,-699 629,-699 629,-625 37,-625"/>
<text text-anchor="middle" x="471.348" y="-683.8" font-family="Times,serif" font-size="14.00">3. Template selection/matching [zftftb_song_clust.m]</text>
</g>
<g id="clust7" class="cluster"><title>cluster_robofinch</title>
<polygon fill="#d0c0a0" stroke="black" points="8,-240 8,-606 790,-606 790,-240 8,-240"/>
<text text-anchor="middle" x="637.95" y="-590.8" font-family="Times,serif" font-size="14.00">4. Automatic template match/alignment [robofinch]</text>
</g>
<g id="clust9" class="cluster"><title>cluster_analysis</title>
<polygon fill="#d0c0a0" stroke="black" points="215,-147 215,-221 790,-221 790,-147 215,-147"/>
<text text-anchor="middle" x="681.293" y="-205.8" font-family="Times,serif" font-size="14.00">5. Data analysis [fluolab/spikoclust]</text>
</g>
<!-- datacollection -->
<g id="node1" class="node"><title>datacollection</title>
<ellipse fill="cornflowerblue" stroke="cornflowerblue" cx="503" cy="-18" rx="39.9535" ry="18"/>
<text text-anchor="middle" x="503" y="-15" font-family="Helvetica,sans-Serif" font-size="10.00" fill="white">Collect data</text>
</g>
<!-- origin -->
<g id="node2" class="node"><title>origin</title>
<ellipse fill="cornflowerblue" stroke="cornflowerblue" cx="517" cy="-1001" rx="54.3315" ry="18"/>
<text text-anchor="middle" x="517" y="-998" font-family="Helvetica,sans-Serif" font-size="10.00" fill="white">/server/datafolder</text>
</g>
<!-- datacollection&#45;&gt;origin -->
<g id="edge1" class="edge"><title>datacollection&#45;&gt;origin</title>
<path fill="none" stroke="maroon" d="M542.506,-19.9192C625.422,-22.9222 810,-35.7049 810,-90 810,-900 810,-900 810,-900 810,-949.271 659.726,-979.258 574.418,-992.312"/>
<polygon fill="maroon" stroke="maroon" points="566.372,-993.523 573.747,-988.773 570.328,-992.928 574.283,-992.333 574.283,-992.333 574.283,-992.333 570.328,-992.928 574.819,-995.892 566.372,-993.523 566.372,-993.523"/>
</g>
<!-- unproc -->
<g id="node3" class="node"><title>unproc</title>
<ellipse fill="cornflowerblue" stroke="cornflowerblue" cx="151" cy="-899" rx="86.6646" ry="18"/>
<text text-anchor="middle" x="151" y="-896" font-family="Helvetica,sans-Serif" font-size="10.00" fill="white">/mypc/datafolder/unprocessed</text>
</g>
<!-- origin&#45;&gt;unproc -->
<g id="edge2" class="edge"><title>origin&#45;&gt;unproc</title>
<path fill="none" stroke="maroon" d="M476.433,-988.916C411.427,-971.155 283.668,-936.248 209.024,-915.853"/>
<polygon fill="maroon" stroke="maroon" points="201.081,-913.683 209.747,-912.319 204.94,-914.738 208.799,-915.792 208.799,-915.792 208.799,-915.792 204.94,-914.738 207.85,-919.265 201.081,-913.683 201.081,-913.683"/>
<text text-anchor="middle" x="429.132" y="-957" font-family="Times,serif" font-size="10.00" fill="navy">filecopy_daemon.sh</text>
</g>
<!-- proc -->
<g id="node4" class="node"><title>proc</title>
<ellipse fill="cornflowerblue" stroke="cornflowerblue" cx="452" cy="-899" rx="80.321" ry="18"/>
<text text-anchor="middle" x="452" y="-896" font-family="Helvetica,sans-Serif" font-size="10.00" fill="white">/mypc/datafolder/processed</text>
</g>
<!-- unproc&#45;&gt;proc -->
<g id="edge3" class="edge"><title>unproc&#45;&gt;proc</title>
<path fill="none" stroke="maroon" d="M237.658,-899C277.058,-899 323.625,-899 363.271,-899"/>
<polygon fill="maroon" stroke="maroon" points="371.621,-899 363.621,-902.6 367.621,-899 363.621,-899 363.621,-899 363.621,-899 367.621,-899 363.621,-895.4 371.621,-899 371.621,-899"/>
<text text-anchor="middle" x="304.711" y="-904" font-family="Times,serif" font-size="10.00" fill="navy">intan_frontend.m auto moves</text>
</g>
<!-- basedir -->
<g id="node6" class="node"><title>basedir</title>
<ellipse fill="cornflowerblue" stroke="cornflowerblue" cx="235" cy="-817" rx="170.886" ry="18"/>
<text text-anchor="middle" x="235" y="-814" font-family="Helvetica,sans-Serif" font-size="10.00" fill="white">basedir=/mypc/organized_data/[BIRD]/[EXPERIMENT]/[DATE]/</text>
</g>
<!-- unproc&#45;&gt;basedir -->
<g id="edge5" class="edge"><title>unproc&#45;&gt;basedir</title>
<path fill="none" stroke="maroon" d="M168.814,-881.034C181.176,-869.261 197.778,-853.449 211.262,-840.608"/>
<polygon fill="maroon" stroke="maroon" points="217.211,-834.941 213.901,-843.066 214.315,-837.7 211.418,-840.459 211.418,-840.459 211.418,-840.459 214.315,-837.7 208.936,-837.852 217.211,-834.941 217.211,-834.941"/>
<text text-anchor="middle" x="252.318" y="-855" font-family="Times,serif" font-size="10.00" fill="navy">Data with mic/ttl/playback</text>
</g>
<!-- trash -->
<g id="node5" class="node"><title>trash</title>
<ellipse fill="cornflowerblue" stroke="cornflowerblue" cx="702" cy="-899" rx="33.1858" ry="18"/>
<text text-anchor="middle" x="702" y="-896" font-family="Helvetica,sans-Serif" font-size="10.00" fill="white">Trash bin</text>
</g>
<!-- proc&#45;&gt;trash -->
<g id="edge4" class="edge"><title>proc&#45;&gt;trash</title>
<path fill="none" stroke="maroon" d="M532.478,-899C575.161,-899 625.811,-899 660.563,-899"/>
<polygon fill="maroon" stroke="maroon" points="668.602,-899 660.602,-902.6 664.602,-899 660.602,-899 660.602,-899 660.602,-899 664.602,-899 660.602,-895.4 668.602,-899 668.602,-899"/>
<text text-anchor="middle" x="600.534" y="-904" font-family="Times,serif" font-size="10.00" fill="navy">intan_frontend.m auto deletes</text>
</g>
<!-- gif1 -->
<g id="node7" class="node"><title>gif1</title>
<ellipse fill="cornflowerblue" stroke="cornflowerblue" cx="111" cy="-744" rx="39.1725" ry="18"/>
<text text-anchor="middle" x="111" y="-741" font-family="Helvetica,sans-Serif" font-size="10.00" fill="white">$basedir/gif</text>
</g>
<!-- basedir&#45;&gt;gif1 -->
<g id="edge6" class="edge"><title>basedir&#45;&gt;gif1</title>
<path fill="none" stroke="maroon" d="M205.614,-799.174C186.435,-788.193 161.436,-773.879 141.952,-762.722"/>
<polygon fill="maroon" stroke="maroon" points="134.778,-758.615 143.509,-759.466 138.249,-760.602 141.72,-762.59 141.72,-762.59 141.72,-762.59 138.249,-760.602 139.931,-765.714 134.778,-758.615 134.778,-758.615"/>
</g>
<!-- mat1 -->
<g id="node8" class="node"><title>mat1</title>
<ellipse fill="cornflowerblue" stroke="cornflowerblue" cx="211" cy="-744" rx="42.726" ry="18"/>
<text text-anchor="middle" x="211" y="-741" font-family="Helvetica,sans-Serif" font-size="10.00" fill="white">$basedir/mat</text>
</g>
<!-- basedir&#45;&gt;mat1 -->
<g id="edge7" class="edge"><title>basedir&#45;&gt;mat1</title>
<path fill="none" stroke="maroon" d="M229.19,-798.813C226.242,-790.092 222.608,-779.34 219.365,-769.746"/>
<polygon fill="maroon" stroke="maroon" points="216.756,-762.029 222.729,-768.455 218.037,-765.818 219.318,-769.608 219.318,-769.608 219.318,-769.608 218.037,-765.818 215.908,-770.76 216.756,-762.029 216.756,-762.029"/>
</g>
<!-- wav1 -->
<g id="node9" class="node"><title>wav1</title>
<ellipse fill="cornflowerblue" stroke="cornflowerblue" cx="315" cy="-744" rx="43.0126" ry="18"/>
<text text-anchor="middle" x="315" y="-741" font-family="Helvetica,sans-Serif" font-size="10.00" fill="white">$basedir/wav</text>
</g>
<!-- basedir&#45;&gt;wav1 -->
<g id="edge8" class="edge"><title>basedir&#45;&gt;wav1</title>
<path fill="none" stroke="maroon" d="M254.366,-798.813C265.447,-788.979 279.437,-776.562 291.186,-766.135"/>
<polygon fill="maroon" stroke="maroon" points="297.45,-760.576 293.856,-768.579 294.458,-763.231 291.466,-765.886 291.466,-765.886 291.466,-765.886 294.458,-763.231 289.077,-763.194 297.45,-760.576 297.45,-760.576"/>
</g>
<!-- manualclust -->
<g id="node10" class="node"><title>manualclust</title>
<ellipse fill="cornflowerblue" stroke="cornflowerblue" cx="125" cy="-651" rx="79.507" ry="18"/>
<text text-anchor="middle" x="125" y="-648" font-family="Helvetica,sans-Serif" font-size="10.00" fill="white">$basedir/mat/[TMP_NAME]</text>
</g>
<!-- mat1&#45;&gt;manualclust -->
<g id="edge9" class="edge"><title>mat1&#45;&gt;manualclust</title>
<path fill="none" stroke="maroon" d="M195.625,-726.731C181.976,-712.289 161.888,-691.033 146.622,-674.879"/>
<polygon fill="maroon" stroke="maroon" points="140.824,-668.744 148.935,-672.085 143.571,-671.651 146.319,-674.558 146.319,-674.558 146.319,-674.558 143.571,-671.651 143.702,-677.031 140.824,-668.744 140.824,-668.744"/>
</g>
<!-- templatestore -->
<g id="node11" class="node"><title>templatestore</title>
<ellipse fill="cornflowerblue" stroke="cornflowerblue" cx="473" cy="-651" rx="148.353" ry="18"/>
<text text-anchor="middle" x="473" y="-648" font-family="Helvetica,sans-Serif" font-size="10.00" fill="white">/mypc/organized_data/[BIRD]/templates/[TMP_NAME]</text>
</g>
<!-- manualclust&#45;&gt;templatestore -->
<g id="edge10" class="edge"><title>manualclust&#45;&gt;templatestore</title>
<path fill="none" stroke="maroon" d="M204.838,-651C238.091,-651 277.91,-651 316.562,-651"/>
<polygon fill="maroon" stroke="maroon" points="324.789,-651 316.789,-654.6 320.789,-651 316.789,-651 316.789,-651 316.789,-651 320.789,-651 316.789,-647.4 324.789,-651 324.789,-651"/>
<text text-anchor="middle" x="264.663" y="-656" font-family="Times,serif" font-size="10.00" fill="navy">User copies template files</text>
</g>
<!-- templatescan -->
<g id="node12" class="node"><title>templatescan</title>
<ellipse fill="cornflowerblue" stroke="cornflowerblue" cx="233" cy="-558" rx="153.945" ry="18"/>
<text text-anchor="middle" x="233" y="-555" font-family="Helvetica,sans-Serif" font-size="10.00" fill="white">Look for templates in each /mypc/organized_data/[BIRD]</text>
</g>
<!-- templatestore&#45;&gt;templatescan -->
<g id="edge11" class="edge"><title>templatestore&#45;&gt;templatescan</title>
<path fill="none" stroke="maroon" d="M430.093,-633.731C389.137,-618.202 327.404,-594.795 283.963,-578.324"/>
<polygon fill="maroon" stroke="maroon" points="276.345,-575.435 285.102,-574.905 280.085,-576.853 283.825,-578.271 283.825,-578.271 283.825,-578.271 280.085,-576.853 282.549,-581.637 276.345,-575.435 276.345,-575.435"/>
</g>
<!-- procbird -->
<g id="node13" class="node"><title>procbird</title>
<ellipse fill="cornflowerblue" stroke="cornflowerblue" cx="571" cy="-558" rx="148.393" ry="18"/>
<text text-anchor="middle" x="571" y="-555" font-family="Helvetica,sans-Serif" font-size="10.00" fill="white">If template present, find matches using SVM boundary</text>
</g>
<!-- templatescan&#45;&gt;procbird -->
<g id="edge12" class="edge"><title>templatescan&#45;&gt;procbird</title>
<path fill="none" stroke="maroon" d="M387.146,-558C396.312,-558 405.477,-558 414.642,-558"/>
<polygon fill="maroon" stroke="maroon" points="422.696,-558 414.696,-561.6 418.696,-558 414.696,-558 414.696,-558 414.696,-558 418.696,-558 414.696,-554.4 422.696,-558 422.696,-558"/>
</g>
<!-- stitchdata -->
<g id="node14" class="node"><title>stitchdata</title>
<ellipse fill="cornflowerblue" stroke="cornflowerblue" cx="477" cy="-485" rx="56.9853" ry="18"/>
<text text-anchor="middle" x="477" y="-482" font-family="Helvetica,sans-Serif" font-size="10.00" fill="white">Stitch aligned data</text>
</g>
<!-- procbird&#45;&gt;stitchdata -->
<g id="edge13" class="edge"><title>procbird&#45;&gt;stitchdata</title>
<path fill="none" stroke="maroon" d="M548.723,-540.174C535.566,-530.236 518.796,-517.569 504.78,-506.983"/>
<polygon fill="maroon" stroke="maroon" points="498.149,-501.974 506.702,-503.923 501.34,-504.385 504.532,-506.796 504.532,-506.796 504.532,-506.796 501.34,-504.385 502.362,-509.668 498.149,-501.974 498.149,-501.974"/>
</g>
<!-- matchplacement -->
<g id="node15" class="node"><title>matchplacement</title>
<ellipse fill="cornflowerblue" stroke="cornflowerblue" cx="411" cy="-412" rx="113.401" ry="18"/>
<text text-anchor="middle" x="411" y="-409" font-family="Helvetica,sans-Serif" font-size="10.00" fill="white">$basedir/mat/[TMP_NAME]_roboextract/</text>
</g>
<!-- stitchdata&#45;&gt;matchplacement -->
<g id="edge14" class="edge"><title>stitchdata&#45;&gt;matchplacement</title>
<path fill="none" stroke="maroon" d="M461.692,-467.533C452.907,-458.081 441.745,-446.074 432.133,-435.735"/>
<polygon fill="maroon" stroke="maroon" points="426.683,-429.871 434.766,-433.279 429.406,-432.801 432.13,-435.73 432.13,-435.73 432.13,-435.73 429.406,-432.801 429.493,-438.182 426.683,-429.871 426.683,-429.871"/>
</g>
<!-- gif2 -->
<g id="node16" class="node"><title>gif2</title>
<ellipse fill="cornflowerblue" stroke="cornflowerblue" cx="135" cy="-339" rx="119.096" ry="18"/>
<text text-anchor="middle" x="135" y="-336" font-family="Helvetica,sans-Serif" font-size="10.00" fill="white">$basedir/mat/[TMP_NAME]_roboextract/gif</text>
</g>
<!-- matchplacement&#45;&gt;gif2 -->
<g id="edge15" class="edge"><title>matchplacement&#45;&gt;gif2</title>
<path fill="none" stroke="maroon" d="M354.147,-396.375C309.544,-384.901 247.401,-368.915 200.676,-356.895"/>
<polygon fill="maroon" stroke="maroon" points="192.728,-354.85 201.373,-353.357 196.602,-355.847 200.476,-356.843 200.476,-356.843 200.476,-356.843 196.602,-355.847 199.579,-360.33 192.728,-354.85 192.728,-354.85"/>
</g>
<!-- mat2 -->
<g id="node17" class="node"><title>mat2</title>
<ellipse fill="cornflowerblue" stroke="cornflowerblue" cx="395" cy="-339" rx="122.649" ry="18"/>
<text text-anchor="middle" x="395" y="-336" font-family="Helvetica,sans-Serif" font-size="10.00" fill="white">$basedir/mat/[TMP_NAME]_roboextract/mat</text>
</g>
<!-- matchplacement&#45;&gt;mat2 -->
<g id="edge16" class="edge"><title>matchplacement&#45;&gt;mat2</title>
<path fill="none" stroke="maroon" d="M407.127,-393.813C405.181,-385.179 402.787,-374.555 400.641,-365.034"/>
<polygon fill="maroon" stroke="maroon" points="398.837,-357.029 404.108,-364.042 399.717,-360.931 400.596,-364.833 400.596,-364.833 400.596,-364.833 399.717,-360.931 397.084,-365.625 398.837,-357.029 398.837,-357.029"/>
</g>
<!-- wav2 -->
<g id="node18" class="node"><title>wav2</title>
<ellipse fill="cornflowerblue" stroke="cornflowerblue" cx="659" cy="-339" rx="123.435" ry="18"/>
<text text-anchor="middle" x="659" y="-336" font-family="Helvetica,sans-Serif" font-size="10.00" fill="white">$basedir/mat/[TMP_NAME]_roboextract/wav</text>
</g>
<!-- matchplacement&#45;&gt;wav2 -->
<g id="edge17" class="edge"><title>matchplacement&#45;&gt;wav2</title>
<path fill="none" stroke="maroon" d="M463.291,-396.029C502.542,-384.792 556.398,-369.374 597.679,-357.556"/>
<polygon fill="maroon" stroke="maroon" points="605.497,-355.318 598.796,-360.98 601.651,-356.418 597.806,-357.519 597.806,-357.519 597.806,-357.519 601.651,-356.418 596.815,-354.058 605.497,-355.318 605.497,-355.318"/>
</g>
<!-- aggplacement -->
<g id="node19" class="node"><title>aggplacement</title>
<ellipse fill="cornflowerblue" stroke="cornflowerblue" cx="364" cy="-266" rx="201.3" ry="18"/>
<text text-anchor="middle" x="364" y="-263" font-family="Helvetica,sans-Serif" font-size="10.00" fill="white">$basedir/mat/[TMP_NAME]_roboextract/roboaggregate/roboaggregate.mat</text>
</g>
<!-- mat2&#45;&gt;aggplacement -->
<g id="edge18" class="edge"><title>mat2&#45;&gt;aggplacement</title>
<path fill="none" stroke="maroon" d="M387.496,-320.813C383.65,-312.005 378.9,-301.125 374.679,-291.458"/>
<polygon fill="maroon" stroke="maroon" points="371.435,-284.029 377.936,-289.92 373.036,-287.695 374.636,-291.36 374.636,-291.36 374.636,-291.36 373.036,-287.695 371.337,-292.801 371.435,-284.029 371.435,-284.029"/>
</g>
<!-- doanalysis -->
<g id="node20" class="node"><title>doanalysis</title>
<ellipse fill="cornflowerblue" stroke="cornflowerblue" cx="346" cy="-173" rx="122.728" ry="18"/>
<text text-anchor="middle" x="346" y="-170" font-family="Helvetica,sans-Serif" font-size="10.00" fill="white">Analyze data and generate gorgeous figures</text>
</g>
<!-- aggplacement&#45;&gt;doanalysis -->
<g id="edge19" class="edge"><title>aggplacement&#45;&gt;doanalysis</title>
<path fill="none" stroke="maroon" d="M360.614,-247.884C357.899,-234.156 354.049,-214.69 350.982,-199.185"/>
<polygon fill="maroon" stroke="maroon" points="349.37,-191.04 354.454,-198.189 350.147,-194.964 350.923,-198.888 350.923,-198.888 350.923,-198.888 350.147,-194.964 347.391,-199.586 349.37,-191.04 349.37,-191.04"/>
</g>
<!-- icandoitbetter -->
<g id="node21" class="node"><title>icandoitbetter</title>
<ellipse fill="cornflowerblue" stroke="cornflowerblue" cx="652" cy="-173" rx="130.071" ry="18"/>
<text text-anchor="middle" x="652" y="-170" font-family="Helvetica,sans-Serif" font-size="10.00" fill="white">This is stupid, I&#39;m rewriting the whole codebase</text>
</g>
<!-- doanalysis&#45;&gt;icandoitbetter -->
<g id="edge24" class="edge"><title>doanalysis&#45;&gt;icandoitbetter</title>
<path fill="none" stroke="maroon" d="M469.139,-173C483.782,-173 498.805,-173 513.642,-173"/>
<polygon fill="maroon" stroke="maroon" points="521.862,-173 513.862,-176.6 517.862,-173 513.862,-173 513.862,-173 513.862,-173 517.862,-173 513.862,-169.4 521.862,-173 521.862,-173"/>
<text text-anchor="middle" x="495.414" y="-178" font-family="Times,serif" font-size="10.00" fill="navy">I give up</text>
</g>
<!-- publish -->
<g id="node22" class="node"><title>publish</title>
<ellipse fill="cornflowerblue" stroke="cornflowerblue" cx="346" cy="-91" rx="74.0601" ry="18"/>
<text text-anchor="middle" x="346" y="-88" font-family="Helvetica,sans-Serif" font-size="10.00" fill="white">Write/publish fancy paper</text>
</g>
<!-- doanalysis&#45;&gt;publish -->
<g id="edge21" class="edge"><title>doanalysis&#45;&gt;publish</title>
<path fill="none" stroke="maroon" d="M346,-154.641C346,-143.664 346,-129.294 346,-117.087"/>
<polygon fill="maroon" stroke="maroon" points="346,-109.05 349.6,-117.05 346,-113.05 346,-117.05 346,-117.05 346,-117.05 346,-113.05 342.4,-117.05 346,-109.05 346,-109.05"/>
<text text-anchor="middle" x="372.238" y="-129" font-family="Times,serif" font-size="10.00" fill="navy">Good(?) data</text>
</g>
<!-- weep -->
<g id="node23" class="node"><title>weep</title>
<ellipse fill="cornflowerblue" stroke="cornflowerblue" cx="503" cy="-91" rx="65.3938" ry="18"/>
<text text-anchor="middle" x="503" y="-88" font-family="Helvetica,sans-Serif" font-size="10.00" fill="white">Weep into coffee mug</text>
</g>
<!-- doanalysis&#45;&gt;weep -->
<g id="edge20" class="edge"><title>doanalysis&#45;&gt;weep</title>
<path fill="none" stroke="maroon" d="M378.15,-155.618C403.653,-142.623 439.324,-124.446 466.01,-110.848"/>
<polygon fill="maroon" stroke="maroon" points="473.283,-107.143 467.789,-113.982 469.719,-108.959 466.155,-110.775 466.155,-110.775 466.155,-110.775 469.719,-108.959 464.52,-107.567 473.283,-107.143 473.283,-107.143"/>
<text text-anchor="middle" x="451.632" y="-129" font-family="Times,serif" font-size="10.00" fill="navy">Bad data</text>
</g>
<!-- futility -->
<g id="node24" class="node"><title>futility</title>
<ellipse fill="cornflowerblue" stroke="cornflowerblue" cx="652" cy="-91" rx="30.1106" ry="18"/>
<text text-anchor="middle" x="652" y="-88" font-family="Helvetica,sans-Serif" font-size="10.00" fill="white">Futility...</text>
</g>
<!-- icandoitbetter&#45;&gt;futility -->
<g id="edge25" class="edge"><title>icandoitbetter&#45;&gt;futility</title>
<path fill="none" stroke="maroon" d="M652,-154.641C652,-143.664 652,-129.294 652,-117.087"/>
<polygon fill="maroon" stroke="maroon" points="652,-109.05 655.6,-117.05 652,-113.05 652,-117.05 652,-117.05 652,-117.05 652,-113.05 648.4,-117.05 652,-109.05 652,-109.05"/>
</g>
<!-- publish&#45;&gt;datacollection -->
<g id="edge23" class="edge"><title>publish&#45;&gt;datacollection</title>
<path fill="none" stroke="maroon" d="M379.68,-74.7687C405.84,-62.9384 441.987,-46.5919 468.382,-34.6554"/>
<polygon fill="maroon" stroke="maroon" points="475.894,-31.2581 470.088,-37.8347 472.249,-32.9063 468.605,-34.5545 468.605,-34.5545 468.605,-34.5545 472.249,-32.9063 467.121,-31.2744 475.894,-31.2581 475.894,-31.2581"/>
</g>
<!-- weep&#45;&gt;datacollection -->
<g id="edge22" class="edge"><title>weep&#45;&gt;datacollection</title>
<path fill="none" stroke="maroon" d="M503,-72.8129C503,-64.179 503,-53.5551 503,-44.0341"/>
<polygon fill="maroon" stroke="maroon" points="503,-36.0288 506.6,-44.0288 503,-40.0288 503,-44.0288 503,-44.0288 503,-44.0288 503,-40.0288 499.4,-44.0289 503,-36.0288 503,-36.0288"/>
</g>
</g>
</svg>
